<svg width="169" height="296" viewBox="0 0 169 296" fill="none" xmlns="http://www.w3.org/2000/svg">
<g opacity="0.75" clip-path="url(#clip0_4_95)">
<path d="M34.1173 31.6558L29.0424 9.15258L27.387 1.82169C27.2497 1.21693 26.8776 0.691447 26.3525 0.360829C25.8274 0.0302105 25.1925 -0.0784643 24.5872 0.0587144L22.0872 0.623689L2.0392 5.14341C1.73991 5.21079 1.45683 5.33644 1.20616 5.51318C0.955488 5.68993 0.742126 5.9143 0.578273 6.17347C0.41442 6.43265 0.303293 6.72155 0.251229 7.02366C0.199165 7.32577 0.207193 7.63517 0.274851 7.93418C-0.801429 17.947 1.32394 27.1838 5.93571 35.8284C6.27632 36.4751 6.63739 37.1217 7.01204 37.7684C7.11118 38.2155 7.34121 38.623 7.67285 38.9391C7.95198 39.2056 8.29266 39.3991 8.66461 39.5024C9.03656 39.6057 9.42827 39.6156 9.80499 39.5313L12.4345 38.9391L14.0558 38.5716L32.3531 34.4466C32.9573 34.3102 33.4826 33.9396 33.8135 33.4162C34.1443 32.8929 34.2536 32.2597 34.1173 31.6558Z" fill="#E6E6E6"/>
<path d="M32.0192 30.4032L27.1826 8.99583L26.0246 3.85671C25.897 3.2909 25.5497 2.79886 25.0592 2.48872C24.5688 2.17857 23.9751 2.07568 23.4087 2.20266L21.8692 2.54982L4.0283 6.57261C3.46205 6.70015 2.96963 7.04709 2.65924 7.5372C2.34885 8.02732 2.24588 8.62051 2.37296 9.18644C2.52962 16.9802 3.34708 24.0524 6.70544 28.368C7.08768 30.0466 7.90801 31.594 9.08302 32.853C10.258 34.112 11.7458 35.0375 13.3949 35.5355C13.4358 35.5491 13.4698 35.5628 13.5107 35.5763C13.538 35.5832 13.572 35.5968 13.5993 35.6036C15.1515 36.04 16.7883 36.0821 18.361 35.7261L30.3639 33.017C30.9301 32.8894 31.4225 32.5425 31.7329 32.0524C32.0433 31.5623 32.1463 30.9691 32.0192 30.4032Z" fill="white"/>
<path d="M14.2448 13.7105C14.6395 13.2554 15.1711 12.9401 15.76 12.8118C16.3489 12.6835 16.9636 12.749 17.5121 12.9986C18.7027 13.5928 19.1646 14.857 18.9744 16.1141C18.7619 17.5183 18.0278 18.7967 17.9611 20.2345C17.9028 21.4928 18.3722 22.8149 19.4881 23.4923C20.2883 23.9781 21.1119 22.7755 20.3079 22.2874C18.9848 21.4842 19.4294 19.7192 19.8132 18.5153C20.2924 17.012 20.7918 15.4795 20.1989 13.9305C19.9365 13.282 19.5155 12.7095 18.9745 12.2656C18.4335 11.8216 17.7897 11.5203 17.102 11.3891C16.4143 11.258 15.7047 11.3013 15.0381 11.515C14.3715 11.7287 13.7691 12.106 13.2862 12.6124C12.6548 13.2926 13.6055 14.3993 14.2448 13.7105Z" fill="#512DA8"/>
<path d="M20.667 27.6911C21.4723 27.6911 22.1251 27.0388 22.1251 26.2342C22.1251 25.4295 21.4723 24.7772 20.667 24.7772C19.8617 24.7772 19.2089 25.4295 19.2089 26.2342C19.2089 27.0388 19.8617 27.6911 20.667 27.6911Z" fill="#512DA8"/>
<path d="M112.437 281.624L89.3531 281.486L81.8326 281.442C80.5404 281.436 79.4808 281.927 79.4666 282.539L79.4364 283.754L79.183 293.494C79.1637 294.102 80.1979 294.608 81.4902 294.615C90.9062 296.153 100.497 296.309 109.958 295.076C110.666 294.99 111.379 294.896 112.096 294.793C112.533 294.8 112.969 294.74 113.389 294.617C114.027 294.421 114.449 294.083 114.46 293.7L114.494 292.422L114.513 291.634L114.744 282.745C114.758 282.132 113.722 281.63 112.437 281.624Z" fill="#E6E6E6"/>
<path d="M110.731 282.453L88.7691 282.326L83.4977 282.295C82.2897 282.287 81.2955 282.746 81.2804 283.318L81.261 284.066L81.0362 292.734C81.0211 293.307 81.9884 293.778 83.1964 293.785C90.8196 294.571 97.8938 294.973 102.874 293.9C106.5 293.918 109.697 292.992 111.404 291.605C111.427 291.587 111.448 291.573 111.471 291.556C111.484 291.544 111.505 291.53 111.518 291.518C111.865 291.262 112.154 290.935 112.365 290.559C112.576 290.183 112.705 289.766 112.742 289.336L112.891 283.504C112.906 282.932 111.939 282.461 110.731 282.453Z" fill="white"/>
<path d="M90.3558 288.81C89.6826 288.332 89.6122 287.683 90.4212 287.225C91.2759 286.742 92.6138 286.668 93.7933 286.894C95.1109 287.147 96.1849 287.626 97.5691 287.815C98.7804 287.98 100.176 287.91 101.095 287.47C101.753 287.154 100.774 286.642 100.112 286.959C99.0233 287.481 97.4083 287.081 96.3254 286.772C94.9733 286.385 93.5973 285.986 91.9519 286.089C88.9582 286.276 87.3964 287.947 89.0643 289.131C89.58 289.497 90.8779 289.181 90.3558 288.81Z" fill="#E6E6E6"/>
<path d="M104.037 287.919C104.843 287.919 105.496 287.61 105.496 287.228C105.496 286.846 104.843 286.537 104.037 286.537C103.232 286.537 102.579 286.846 102.579 287.228C102.579 287.61 103.232 287.919 104.037 287.919Z" fill="#E6E6E6"/>
<path d="M1.30759 112.755C-0.698105 104.338 -0.363616 96.047 3.07086 87.9243C3.10712 87.4218 3.34138 86.9542 3.72227 86.624C4.10315 86.2939 4.59956 86.1281 5.10256 86.1632L23.8698 87.4939C24.3727 87.5301 24.8407 87.7642 25.1711 88.1448C25.5015 88.5254 25.6674 89.0214 25.6322 89.524L23.869 114.355C23.8327 114.857 23.5985 115.325 23.2176 115.655C22.8367 115.985 22.3403 116.151 21.8373 116.116L3.07007 114.785C2.56715 114.749 2.09913 114.515 1.76872 114.134C1.43831 113.754 1.27247 113.258 1.30759 112.755Z" fill="#F2F2F2"/>
<path d="M3.27971 105.357C1.67458 101.209 2.70088 95.5045 4.4133 89.3938C4.44725 88.9231 4.66664 88.4852 5.02335 88.1759C5.38006 87.8667 5.84496 87.7116 6.31604 87.7444L22.4449 88.888C22.9159 88.9219 23.3542 89.1411 23.6637 89.4976C23.9731 89.854 24.1285 90.3185 24.0956 90.7893L22.5265 112.885C22.4926 113.356 22.2731 113.794 21.9164 114.103C21.5597 114.412 21.0948 114.567 20.6237 114.534L10.6322 113.826C8.53418 113.675 6.58182 112.698 5.20343 111.111C3.82505 109.523 3.13321 107.454 3.27971 105.357Z" fill="white"/>
<path d="M14.4462 106.44C13.9535 106.355 13.4609 106.271 12.9682 106.186C13.1952 105.651 13.3262 105.08 13.3552 104.499C13.5884 101.391 13.6119 98.254 13.7363 95.1399C13.7331 95.0261 13.6969 94.9155 13.6322 94.8217C13.5675 94.7279 13.4771 94.6548 13.3717 94.6112C13.2664 94.5676 13.1507 94.5554 13.0386 94.576C12.9264 94.5966 12.8227 94.6492 12.7398 94.7275C11.5025 95.7515 10.2652 96.7755 9.02793 97.7995C8.44878 98.2788 9.27871 99.1001 9.85349 98.6244C10.7415 97.8894 11.6296 97.1544 12.5177 96.4194C12.4362 98.4599 12.3546 100.5 12.2731 102.541C12.234 103.52 12.3532 104.709 11.9519 105.63C11.8971 105.754 11.8255 105.87 11.7391 105.975C11.1936 105.881 10.6482 105.788 10.1027 105.694C9.71044 105.627 9.21199 105.954 9.38463 106.412C9.76007 107.407 10.8668 107.721 11.8158 107.338C11.8994 107.3 11.9804 107.257 12.058 107.208L14.1358 107.565C14.8707 107.691 15.1864 106.567 14.4462 106.44Z" fill="#F2F2F2"/>
<path d="M69.4123 115.088C67.4066 106.671 67.7411 98.3802 71.1756 90.2575C71.2119 89.755 71.4461 89.2874 71.827 88.9572C72.2079 88.6271 72.7043 88.4613 73.2073 88.4964L91.9745 89.8271C92.4774 89.8633 92.9454 90.0974 93.2759 90.478C93.6063 90.8586 93.7721 91.3546 93.737 91.8572L91.9737 116.688C91.9375 117.19 91.7032 117.658 91.3223 117.988C90.9414 118.318 90.445 118.484 89.942 118.449L71.1748 117.118C70.6719 117.082 70.2039 116.848 69.8735 116.467C69.5431 116.087 69.3772 115.591 69.4123 115.088Z" fill="#F2F2F2"/>
<path d="M71.3845 107.69C69.7794 103.542 70.8057 97.8377 72.5181 91.727C72.552 91.2563 72.7714 90.8183 73.1281 90.5091C73.4849 90.1999 73.9498 90.0448 74.4208 90.0776L90.5497 91.2212C91.0207 91.2551 91.459 91.4743 91.7685 91.8308C92.0779 92.1872 92.2333 92.6517 92.2004 93.1225L90.6313 115.218C90.5974 115.689 90.3779 116.127 90.0212 116.436C89.6645 116.745 89.1996 116.901 88.7285 116.868L78.737 116.159C76.639 116.008 74.6866 115.032 73.3082 113.444C71.9298 111.856 71.238 109.787 71.3845 107.69Z" fill="white"/>
<path d="M81.9135 103.477C82.1279 103.377 82.3308 103.254 82.5187 103.111C83.0188 102.699 83.3885 102.15 83.5829 101.532C83.7774 100.915 83.7882 100.254 83.6142 99.6297C82.8574 96.8516 79.5317 96.8347 77.2357 97.169C76.495 97.2768 76.81 98.4011 77.5461 98.2939C79.0935 98.0686 81.5227 97.8865 82.3541 99.5753C82.5439 99.972 82.6114 100.416 82.5481 100.851C82.4849 101.286 82.2936 101.693 81.9987 102.019C81.646 102.373 81.1817 102.593 80.6847 102.643C80.2033 102.434 79.6806 102.337 79.156 102.358C78.615 102.384 78.3136 103.17 78.8614 103.445C79.3462 103.687 79.8803 103.813 80.4218 103.813C80.8709 104.03 81.246 104.374 81.4999 104.803C81.7538 105.231 81.8752 105.726 81.8488 106.223C81.7971 106.564 81.6785 106.891 81.4999 107.186C81.3213 107.48 81.0861 107.737 80.8079 107.94C80.5297 108.144 80.214 108.291 79.879 108.372C79.5439 108.453 79.196 108.467 78.8554 108.414C78.1218 108.266 77.8079 109.39 78.545 109.539C79.0482 109.633 79.5654 109.625 80.0654 109.515C80.5654 109.405 81.0379 109.194 81.4544 108.897C81.871 108.599 82.2229 108.221 82.4891 107.784C82.7552 107.346 82.9301 106.86 83.0032 106.354C83.0495 105.823 82.9756 105.289 82.7869 104.791C82.5983 104.293 82.2998 103.844 81.9135 103.477Z" fill="#F2F2F2"/>
<path d="M105.895 274.324L99.2921 274.324L96.1511 248.875L105.896 248.876L105.895 274.324Z" fill="#FFB6B6"/>
<path d="M106.127 281.207L85.8225 281.207V280.95C85.8227 278.856 86.6554 276.847 88.1375 275.366C89.6196 273.885 91.6297 273.053 93.7258 273.053H93.7263L97.4352 270.241L104.355 273.053L106.128 273.053L106.127 281.207Z" fill="#2F2E41"/>
<path d="M136.25 288.324L129.647 288.323L126.506 262.874L136.252 262.875L136.25 288.324Z" fill="#FFB6B6"/>
<path d="M136.483 295.207L116.178 295.206V294.949C116.178 292.855 117.011 290.846 118.493 289.365C119.975 287.884 121.985 287.052 124.081 287.052H124.081L127.79 284.241L134.711 287.053L136.483 287.053L136.483 295.207Z" fill="#2F2E41"/>
<path d="M55.0113 84.8054C55.4648 85.3119 56.0231 85.7139 56.6474 85.9836C57.2718 86.2534 57.9473 86.3844 58.6273 86.3676C59.3073 86.3508 59.9755 86.1866 60.5858 85.8864C61.196 85.5862 61.7337 85.157 62.1617 84.6288L84.6758 91.0324L87.9795 85.2453L61.1835 77.835C60.24 77.1814 59.0892 76.8963 57.9494 77.0338C56.8096 77.1712 55.7598 77.7217 54.999 78.5809C54.2382 79.4401 53.8193 80.5482 53.8215 81.6954C53.8238 82.8427 54.2471 83.9492 55.0113 84.8054Z" fill="#FFB6B6"/>
<path d="M113.558 138.366L89.8685 192.489L87.1443 201.044L95.3806 261.092L108.675 260.443L108.645 252.743C108.645 252.743 105.481 251.029 108.635 250.097C111.788 249.166 111.655 246.802 108.608 243.318C105.561 239.834 108.465 206.488 108.465 206.488C108.465 206.488 121.011 194.484 119.645 191.348C118.278 188.212 120.815 188.212 120.815 188.212C120.815 188.212 123.52 187.728 123.623 186.415C123.726 185.101 125.731 182.459 125.731 182.459L125.029 274.941H136.499C136.499 274.941 141.743 266.233 140.713 264.359C139.682 262.485 138.241 262.302 140.713 260.06C143.185 257.819 146.813 259.653 145.193 255.431C143.574 251.208 143.99 205.642 143.99 205.642C143.99 205.642 150.371 179.2 146.429 177.405C142.486 175.61 144.446 175.863 146.774 173.403C149.102 170.943 145.154 171.168 147.128 169.306C149.102 167.443 149.182 145.526 149.182 145.526L113.558 138.366Z" fill="#2F2E41"/>
<path d="M150.968 153.603C134.362 153.564 120.115 157.293 103.509 157.254C104.591 149.772 108.372 138.045 109.453 130.562C110.974 120.036 109.795 113.754 111.312 103.229C111.464 102.198 111.611 101.172 111.759 100.141C112.359 95.9802 110.923 91.8193 113.499 87.4251C114.596 85.5508 116.422 83.6375 119.445 81.6621C125.727 82.2998 125.618 79.4689 131.899 80.1066L133.977 84.2442C134.242 85.8152 135.195 86.8379 136.487 87.6118C139.145 89.2178 143.239 89.7777 145.699 91.9515C148.789 94.6813 148.583 99.0483 147.664 103.31C147.337 104.827 146.921 106.328 146.528 107.74C143.364 119.113 147.408 127.789 150.705 138.339C151.018 139.34 148.057 143.208 148.37 144.172C148.902 145.806 150.807 147.838 150.504 148.941C150.128 150.308 149.754 151.594 150.968 153.603Z" fill="#512DA8"/>
<path d="M147.664 103.31L111.312 103.229L110.144 103.225L67.0336 87.3976L72.5505 87.5845L75.1112 81.6854L76.3449 78.8506L101.754 87.3356L113.499 87.4251L135.643 87.5884C135.927 87.5923 136.207 87.6001 136.487 87.6118C139.145 89.2178 143.239 89.7777 145.699 91.9515C148.789 94.6814 148.583 99.0483 147.664 103.31Z" fill="#512DA8"/>
<path d="M122.828 78.978C129.352 78.978 134.641 73.6931 134.641 67.1738C134.641 60.6546 129.352 55.3697 122.828 55.3697C116.304 55.3697 111.015 60.6546 111.015 67.1738C111.015 73.6931 116.304 78.978 122.828 78.978Z" fill="#FFB6B6"/>
<path d="M121.149 77.3199L122.112 80.3944C124.245 79.3419 130.299 77.8814 132.076 76.2998C133.853 74.7181 135.227 72.5354 135.311 70.1592C135.354 68.932 135.057 67.694 135.261 66.4831C135.492 65.1148 136.337 63.9286 136.724 62.596C137.086 61.2002 136.949 59.722 136.338 58.4157C135.727 57.1094 134.68 56.0567 133.376 55.4388C131.418 54.5789 129.179 54.8202 127.05 54.6124C124.921 54.4046 122.546 53.4423 121.947 51.3906C121.723 50.6235 121.749 49.719 121.063 49.2167C120.718 48.9865 120.301 48.892 119.89 48.9512C119.48 49.0105 119.106 49.2194 118.841 49.5377C118.809 49.5735 118.779 49.6097 118.75 49.6463C116.948 51.9051 113.552 52.0728 111.774 49.7945C111.658 49.6456 111.547 49.4933 111.439 49.3375C111.066 49.687 110.765 50.1069 110.555 50.5731C110.345 51.0393 110.23 51.5425 110.216 52.0535C110.201 52.5646 110.289 53.0734 110.472 53.5505C110.656 54.0277 110.933 54.4637 111.286 54.8334C110.615 54.8337 109.963 54.6079 109.436 54.1926C108.909 53.7772 108.537 53.1965 108.381 52.5441C107.566 53.6693 106.729 54.8427 106.467 56.2068C106.205 57.571 106.691 59.1845 107.943 59.7881C108.582 60.0405 109.268 60.1527 109.954 60.1172C106.725 63.9346 108.662 63.8248 115.203 60.2168C118.448 60.2784 117.167 63.2912 117.209 66.5339C118.736 66.3873 120.309 66.2439 121.753 66.8865C122.425 67.1695 122.992 67.6562 123.373 68.2781C124.328 69.9161 123.381 71.6185 122.542 73.1084C121.824 74.3819 121.144 75.9156 121.74 77.2505" fill="#2F2E41"/>
<path d="M99.6486 176.276C100.244 175.948 100.761 175.493 101.163 174.946C101.566 174.398 101.844 173.769 101.979 173.103C102.115 172.437 102.104 171.749 101.947 171.088C101.79 170.426 101.491 169.807 101.072 169.272L112.341 148.771L107.433 144.262L94.2256 168.709C93.3774 169.483 92.8426 170.54 92.7224 171.681C92.6023 172.822 92.9051 173.967 93.5735 174.9C94.242 175.832 95.2296 176.488 96.3493 176.741C97.4689 176.995 98.6429 176.83 99.6486 176.276Z" fill="#FFB6B6"/>
<path d="M127.135 80.4061L124.509 127.428L111.853 156.978L103.616 167.893L104.552 162.947L98.8739 160.108L98.3407 159.844L105.898 140.715L108.179 134.945L109.241 117.574L110.245 101.148C110.419 98.3215 111.177 95.5615 112.472 93.0428C113.768 90.524 115.573 88.3012 117.772 86.5152L124.077 81.3977L127.135 80.4061Z" fill="#512DA8"/>
<path d="M38.6679 80.479C36.6622 72.0616 36.9967 63.771 40.4312 55.6484C40.4674 55.1458 40.7017 54.6782 41.0826 54.348C41.4634 54.0179 41.9598 53.8522 42.4628 53.8873L61.2301 55.2179C61.733 55.2541 62.201 55.4882 62.5314 55.8688C62.8618 56.2494 63.0276 56.7454 62.9925 57.248L61.2293 82.0786C61.193 82.5811 60.9587 83.0488 60.5779 83.3789C60.197 83.7091 59.7006 83.8748 59.1976 83.8397L40.4304 82.5091C39.9274 82.4729 39.4594 82.2388 39.129 81.8582C38.7986 81.4776 38.6328 80.9816 38.6679 80.479Z" fill="#F2F2F2"/>
<path d="M40.6401 73.0812C39.0349 68.9333 40.0612 63.2285 41.7737 57.1178C41.8076 56.6471 42.027 56.2092 42.3837 55.9C42.7404 55.5908 43.2053 55.4356 43.6764 55.4685L59.8052 56.612C60.2763 56.6459 60.7146 56.8651 61.024 57.2216C61.3335 57.578 61.4888 58.0426 61.4559 58.5133L59.8869 80.6092C59.8529 81.0798 59.6335 81.5178 59.2768 81.827C58.92 82.1362 58.4551 82.2913 57.984 82.2585L47.9926 81.5501C45.8945 81.3989 43.9422 80.4224 42.5638 78.8347C41.1854 77.2471 40.4936 75.1779 40.6401 73.0812Z" fill="white"/>
<path d="M50.5585 61.9618C48.9051 61.3885 47.0666 62.695 46.879 64.3889C46.6663 66.3089 48.7332 67.8246 50.5225 67.3028C51.2423 67.0929 50.936 65.9667 50.2121 66.1778C48.9005 66.5603 47.5015 65.1452 48.2555 63.8801C48.4269 63.5747 48.6872 63.3287 49.0019 63.1749C49.3166 63.021 49.6707 62.9666 50.0172 63.0188C50.3113 63.1002 50.5822 63.2494 50.8082 63.4543C51.0342 63.6592 51.209 63.9142 51.3186 64.1989C51.9621 65.6479 51.1973 67.1191 50.1837 68.1723C49.6056 68.773 48.9273 69.2398 48.3042 69.7873C48.0013 70.016 47.7497 70.3056 47.5656 70.6374C47.3815 70.9692 47.2691 71.3359 47.2355 71.7138C47.2519 72.1387 47.3843 72.5511 47.6184 72.9063C47.8524 73.2615 48.1792 73.546 48.5634 73.729C49.5588 74.2405 50.691 74.0779 51.7499 73.9077C52.4897 73.7887 52.1757 72.6643 51.4395 72.7827C50.5134 72.9316 49.1268 73.1572 48.54 72.1923C48.0374 71.366 49.0728 70.6404 49.637 70.2008C51.0548 69.0961 52.4887 67.6694 52.7016 65.7911C52.876 64.2523 52.0933 62.4941 50.5585 61.9618Z" fill="#512DA8"/>
<path d="M147.884 289.26C148.065 289.268 148.244 289.221 148.397 289.124C148.55 289.027 148.67 288.886 148.739 288.719C148.809 288.552 148.826 288.367 148.788 288.191C148.749 288.014 148.657 287.853 148.524 287.73L148.464 287.49C148.472 287.471 148.48 287.451 148.488 287.432C148.67 287.002 148.975 286.635 149.365 286.378C149.756 286.121 150.213 285.985 150.681 285.986C151.148 285.988 151.604 286.128 151.993 286.388C152.381 286.648 152.684 287.017 152.863 287.448C153.578 289.17 154.489 290.895 154.713 292.716C154.812 293.521 154.77 294.337 154.59 295.127C156.271 291.464 157.143 287.483 157.149 283.453C157.149 282.442 157.093 281.431 156.981 280.426C156.888 279.603 156.759 278.785 156.594 277.973C155.693 273.566 153.759 269.436 150.951 265.922C149.591 265.181 148.492 264.041 147.801 262.657C147.551 262.159 147.374 261.628 147.276 261.079C147.429 261.099 147.854 258.766 147.738 258.623C147.952 258.299 148.334 258.138 148.568 257.822C149.728 256.249 151.327 256.524 152.162 258.661C153.945 259.56 153.963 261.051 152.868 262.486C152.172 263.398 152.077 264.633 151.466 265.61C151.529 265.691 151.594 265.769 151.657 265.849C152.806 267.325 153.807 268.91 154.646 270.581C154.442 268.709 154.686 266.815 155.357 265.055C156.037 263.415 157.312 262.034 158.435 260.616C158.732 260.235 159.136 259.951 159.594 259.799C160.053 259.647 160.547 259.635 161.012 259.763C161.478 259.892 161.895 260.155 162.212 260.52C162.528 260.886 162.728 261.336 162.788 261.815C162.79 261.836 162.792 261.857 162.795 261.878C162.628 261.972 162.464 262.072 162.305 262.177C162.104 262.311 161.949 262.503 161.859 262.727C161.769 262.95 161.748 263.196 161.801 263.432C161.853 263.667 161.975 263.881 162.151 264.046C162.327 264.211 162.549 264.319 162.788 264.356L162.812 264.36C162.753 264.96 162.648 265.556 162.498 266.14C163.939 271.707 160.828 273.735 156.387 273.826C156.289 273.876 156.194 273.926 156.096 273.974C156.939 276.362 157.468 278.849 157.669 281.373C157.783 282.863 157.777 284.359 157.649 285.847L157.657 285.794C157.979 284.139 158.862 282.646 160.158 281.567C162.082 279.987 164.802 279.405 166.878 278.135C167.099 277.994 167.355 277.918 167.618 277.918C167.88 277.917 168.137 277.991 168.358 278.132C168.58 278.272 168.756 278.473 168.867 278.71C168.978 278.948 169.018 279.212 168.984 279.472L168.975 279.527C168.666 279.653 168.365 279.798 168.073 279.962C167.906 280.056 167.743 280.156 167.583 280.261C167.383 280.395 167.227 280.587 167.137 280.81C167.047 281.034 167.027 281.28 167.079 281.515C167.131 281.751 167.254 281.965 167.43 282.13C167.606 282.295 167.828 282.403 168.066 282.44L168.091 282.443C168.108 282.446 168.123 282.448 168.141 282.451C167.612 283.713 166.87 284.874 165.947 285.884C165.046 290.744 161.177 291.205 157.038 289.79H157.036C156.582 291.762 155.924 293.681 155.073 295.516H148.06C148.035 295.439 148.012 295.358 147.989 295.28C148.639 295.321 149.29 295.282 149.93 295.165C149.41 294.527 148.889 293.884 148.369 293.246C148.357 293.234 148.347 293.221 148.336 293.208C148.072 292.882 147.806 292.558 147.542 292.231L147.542 292.231C147.528 291.23 147.643 290.231 147.884 289.26Z" fill="#F2F2F2"/>
<path d="M69.4463 295.537C69.4461 295.598 69.458 295.658 69.4812 295.715C69.5044 295.771 69.5385 295.822 69.5815 295.865C69.6246 295.908 69.6757 295.942 69.732 295.965C69.7883 295.988 69.8486 296 69.9094 296H168.482C168.605 296 168.723 295.951 168.81 295.864C168.897 295.778 168.945 295.66 168.945 295.537C168.945 295.415 168.897 295.297 168.81 295.21C168.723 295.123 168.605 295.074 168.482 295.074H69.9094C69.8486 295.074 69.7883 295.086 69.732 295.109C69.6757 295.133 69.6246 295.167 69.5815 295.21C69.5385 295.253 69.5044 295.304 69.4812 295.36C69.458 295.416 69.4461 295.476 69.4463 295.537Z" fill="#CCCCCC"/>
<path d="M19.8227 39.8717C19.3357 47.0631 19.5697 55.225 25.1564 60.5599C26.4654 61.8215 28.0287 62.7896 29.7418 63.3996C30.4518 63.6497 30.7572 62.523 30.0522 62.2747C27.1822 61.2638 24.9244 59.0422 23.42 56.4449C21.6564 53.4001 20.9836 49.8875 20.8362 46.4059C20.7678 44.2266 20.8192 42.0453 20.9902 39.8716C21.041 39.1222 19.8733 39.1254 19.8227 39.8717Z" fill="#3F3D56"/>
<path d="M28.5254 56.3283C29.9102 56.9712 31.3617 57.6253 32.4571 58.7182C33.4564 59.7153 34.1542 61.1697 33.7493 62.5909C33.085 64.9225 30.1267 65.8017 28.0642 66.3577C27.9197 66.403 27.7984 66.5025 27.7259 66.6354C27.6534 66.7683 27.6354 66.9241 27.6756 67.07C27.7159 67.2158 27.8112 67.3404 27.9416 67.4174C28.072 67.4944 28.2272 67.5178 28.3745 67.4826C30.4494 66.9233 32.7759 66.1424 34.1311 64.3675C35.7349 62.2673 34.9735 59.499 33.172 57.7858C32.0115 56.6822 30.5515 55.988 29.1147 55.321C28.4376 55.0067 27.8439 56.012 28.5254 56.3283Z" fill="#3F3D56"/>
</g>
<defs>
<clipPath id="clip0_4_95">
<rect width="169" height="296" fill="white"/>
</clipPath>
</defs>
</svg>
