<svg width="306" height="244" viewBox="0 0 306 244" fill="none" xmlns="http://www.w3.org/2000/svg">
<g opacity="0.75" clip-path="url(#clip0_1_7)">
<path d="M204.459 53.446C204.415 53.4537 204.347 53.4651 204.266 53.4785C202.674 53.7423 193.046 55.2284 183.34 51.529C179.228 49.9618 180.631 49.5711 171.473 44.1225C160.737 37.7345 157.981 37.7792 157.182 34.8006C155.585 28.8528 164.11 19.5028 169.753 20.1184C171.238 20.2805 172.829 21.1666 175.304 20.5657C175.847 20.4337 178.227 19.8558 179.387 17.8848C180.422 16.1265 179.546 14.8581 179.962 13.416C181.054 9.63079 190.162 7.74176 198.147 9.07646C202.739 9.84414 206.311 11.9399 213.268 16.1002C225.376 23.3413 231.43 26.9618 232.79 32.5089C234.08 37.7665 230.985 40.0319 233.236 45.66C235.332 50.9004 238.661 50.5504 239.807 54.7897C241.65 61.6116 234.808 69.0986 231.957 72.2174C228.832 75.6369 225.843 77.5136 221.876 80.0051C216.895 83.1323 214.405 84.6959 211.411 84.5368C205.983 84.2484 189.854 85.2302 189.643 80.7359C189.565 79.0515 170.002 80.4307 179.635 62.2968C180.816 60.0726 203.962 62.4484 204.267 61.1707" fill="#2F2E41"/>
<path d="M213.827 65.05L230.464 89.8803L182.708 99.5436L185.749 68.4569L213.827 65.05Z" fill="#FFB6B6"/>
<path opacity="0.1" d="M213.827 65.05L230.464 89.8803L182.708 99.5436L185.749 68.4569L213.827 65.05Z" fill="black"/>
<path d="M179.131 83.4381L230.639 81.2907L253.532 93.8172L252.459 174.345L276.424 219.798L155.522 196.892L164.823 162.534L160.53 90.2382L179.131 83.4381Z" fill="#0277BD"/>
<path d="M1.38718 239.877C-0.257266 237.283 -0.451471 234.079 0.867784 231.305L20.4721 190.091C21.9352 187.015 25.0806 185.028 28.4851 185.028H276.103C279.413 185.028 282.424 186.849 283.961 189.782L304.975 229.86C306.427 232.631 306.332 235.885 304.719 238.565C303.107 241.245 300.278 242.852 297.151 242.865L8.91567 244H8.87959C5.82402 244 3.02495 242.461 1.38718 239.877Z" fill="white"/>
<path d="M1.38718 239.877C-0.257266 237.283 -0.451471 234.079 0.867784 231.305L20.4721 190.091C21.9352 187.015 25.0806 185.028 28.4851 185.028H276.103C279.413 185.028 282.424 186.849 283.961 189.782L304.975 229.86C306.427 232.631 306.332 235.885 304.719 238.565C303.107 241.245 300.278 242.852 297.151 242.865L8.91567 244H8.87959C5.82402 244 3.02495 242.461 1.38718 239.877ZM28.4851 185.959C25.4379 185.959 22.6228 187.739 21.3132 190.491L1.70888 231.706C0.528043 234.188 0.70178 237.056 2.1737 239.378C3.63971 241.69 6.14466 243.068 8.87974 243.068H8.91203L297.148 241.933C299.946 241.922 302.478 240.483 303.921 238.084C305.364 235.685 305.45 232.773 304.15 230.294L283.137 190.215C281.761 187.59 279.066 185.959 276.103 185.959H28.4851Z" fill="#3F3D56"/>
<path d="M253.049 228.244L150.864 221.215C149.355 221.111 148.152 220.093 147.799 218.622C147.445 217.151 148.055 215.697 149.352 214.919L171.948 201.353C172.521 201.009 173.18 200.841 173.847 200.874L262.236 204.894C263.405 204.946 264.449 205.585 265.028 206.602C265.608 207.618 265.626 208.842 265.078 209.876L256.277 226.45C255.687 227.563 254.529 228.252 253.282 228.252C253.205 228.252 253.127 228.249 253.049 228.244Z" fill="#3F3D56"/>
<path d="M149.978 217.114L251.743 224.093L259.791 206.735L172.532 203.311L149.978 217.114Z" fill="white"/>
<path d="M200.056 73.4141C216.945 73.4141 230.636 59.7151 230.636 42.8166C230.636 25.918 216.945 12.219 200.056 12.219C183.167 12.219 169.475 25.918 169.475 42.8166C169.475 59.7151 183.167 73.4141 200.056 73.4141Z" fill="#FFB6B6"/>
<path d="M209.906 44.7966C209.861 44.8043 209.794 44.8156 209.712 44.8291C208.12 45.0928 198.493 46.579 188.786 42.8796C184.675 41.3123 186.077 40.9217 176.92 35.4731C166.183 29.0851 163.428 29.1297 162.628 26.1511C161.032 20.2034 169.556 10.8533 175.199 11.469C176.684 11.631 178.275 12.5172 180.75 11.9163C181.293 11.7843 183.673 11.2064 184.834 9.23539C185.868 7.47707 184.992 6.20868 185.408 4.76662C186.501 0.98138 195.608 -0.907654 203.593 0.427051C208.185 1.19473 211.757 3.29052 218.714 7.45079C230.822 14.6918 236.876 18.3124 238.236 23.8594C239.526 29.117 236.431 31.3825 238.682 37.0106C240.778 42.251 244.107 41.901 245.253 46.1403C247.097 52.9621 240.254 60.4492 237.404 63.568C234.278 66.9875 231.29 68.8642 227.322 71.3557C222.341 74.4829 219.851 76.0465 216.858 75.8874C211.43 75.599 206.031 70.6771 205.82 66.1827C205.741 64.4984 206.444 63.9933 208.182 58.2029C208.906 55.7905 209.408 53.799 209.713 52.5213" fill="#2F2E41"/>
<path d="M230.865 208.731C232.833 208.809 234.33 210.572 234.439 212.483C234.551 214.467 233.173 216.294 231.517 217.238C229.577 218.344 227.156 218.522 224.972 218.331C223.007 218.16 220.87 217.549 219.606 215.926C218.542 214.56 218.151 212.496 219.055 210.946C219.952 209.409 221.86 208.984 223.456 209.601C225.144 210.254 226.206 211.791 226.217 213.607C226.229 215.62 225.067 217.479 223.436 218.592C221.678 219.793 219.464 220.179 217.371 220.174C215.091 220.169 212.82 219.69 210.722 218.801C208.756 217.967 206.792 216.766 205.386 215.133C204.069 213.602 203.28 211.478 204.011 209.493C204.611 207.865 206.127 206.867 207.863 207.005C209.452 207.131 211.059 208.053 211.764 209.523C212.56 211.18 212.203 213.169 211.19 214.651C210.021 216.362 208.172 217.324 206.12 217.463C203.935 217.611 201.771 216.834 199.974 215.633C198.31 214.521 196.848 213.098 195.061 212.173C194.201 211.728 193.266 211.445 192.292 211.446C191.053 211.448 189.861 211.855 188.656 212.091C187.634 212.292 186.581 212.408 185.573 212.082C184.71 211.802 183.902 211.29 183.359 210.555C182.845 209.86 182.664 208.989 182.956 208.164C183.184 207.517 184.221 207.795 183.99 208.449C183.458 209.958 185.285 211.067 186.563 211.206C187.533 211.311 188.534 211.03 189.47 210.811C190.446 210.583 191.443 210.349 192.452 210.374C196.025 210.462 198.387 213.518 201.268 215.176C204.297 216.919 208.732 217.041 210.587 213.577C211.261 212.319 211.4 210.646 210.474 209.471C209.703 208.492 208.334 207.906 207.092 208.096C205.533 208.334 204.757 209.82 204.814 211.296C204.883 213.104 206.142 214.573 207.485 215.655C210.474 218.065 214.438 219.293 218.261 219.077C220.055 218.976 221.962 218.509 223.355 217.314C224.559 216.281 225.381 214.602 225.092 212.994C224.841 211.602 223.675 210.546 222.265 210.406C220.823 210.262 219.696 211.287 219.631 212.728C219.559 214.35 220.522 215.703 221.917 216.441C223.497 217.277 225.412 217.381 227.163 217.29C229.022 217.193 230.96 216.703 232.261 215.286C233.371 214.078 233.791 212.285 232.769 210.887C232.317 210.27 231.639 209.835 230.865 209.804C230.177 209.777 230.174 208.703 230.865 208.731Z" fill="#0277BD"/>
<path d="M181.958 207.581L182.505 204.196L212.864 146.138C213.367 145.176 214.559 144.803 215.52 145.306C216.481 145.809 216.854 147.001 216.351 147.963L186.005 205.995L183.524 208.4C183.231 208.683 182.807 208.744 182.446 208.555C182.085 208.366 181.893 207.983 181.958 207.581Z" fill="#3F3D56"/>
<path d="M202.652 170.643C206.077 171.288 209.298 172.745 212.045 174.891L212.2 174.924L212.231 174.77L245.319 179.955L242.922 135.921L267.998 122.179L262.071 196.612C260.787 201.366 255.857 204.142 251.13 202.773L209.01 190.651L209.116 190.132L208.968 190.093C205.602 191.001 202.068 191.089 198.66 190.35C190.112 188.619 184.076 182.804 185.178 177.361C186.28 171.918 194.101 168.91 202.652 170.643Z" fill="#FFB6B6"/>
<path d="M225.274 101.691L253.532 93.8172C253.532 93.8172 268.376 104.733 270.165 116.544C270.377 117.949 270.967 183.38 270.344 185.082C265.721 197.686 240.297 177.566 240.297 177.566L225.274 101.691Z" fill="#0277BD"/>
<path d="M102.703 219.293L99.7736 216.781C99.3375 216.406 98.807 216.158 98.2399 216.064L32.9662 205.179C31.4763 204.93 30.3758 203.854 30.0939 202.369C29.8122 200.884 30.4417 199.479 31.7369 198.701L55.0236 184.721C55.8019 184.254 56.7178 184.107 57.6038 184.307L140.366 203.016C141.975 203.379 143.048 204.68 143.101 206.33C143.154 207.979 142.165 209.346 140.583 209.812L105.979 219.996C105.65 220.093 105.315 220.14 104.983 220.14C104.157 220.14 103.349 219.847 102.703 219.293Z" fill="#3F3D56"/>
<path d="M71.2687 138.107C74.5042 139.404 77.3824 141.456 79.6623 144.094L79.8075 144.157L79.868 144.012L111.326 155.508L144.915 101.092L163.484 112.607L124.539 175.095C122.36 179.51 116.985 181.278 112.612 179.02L73.6354 158.968L73.839 158.48L73.7022 158.412C70.224 158.652 66.7391 158.054 63.5393 156.669C55.488 153.315 50.6914 146.44 52.8254 141.313C54.9594 136.187 63.215 134.751 71.2687 138.107Z" fill="#FFB6B6"/>
<path d="M180.947 110.916L166.091 88.6871C166.091 88.6871 148.412 92.1884 141.129 101.654C140.219 102.837 108.949 148.213 108.748 150.193C107.338 164.055 143.276 170.55 143.276 170.55L180.947 110.916Z" fill="#0277BD"/>
<path d="M101.086 219.961L26.2624 209.613C23.7582 209.267 21.6913 207.472 20.9965 205.039L3.81148 144.858C3.22917 142.818 3.66389 140.706 5.00421 139.062C6.34453 137.419 8.32479 136.57 10.4394 136.731L85.8244 142.51C88.5517 142.719 90.8411 144.641 91.5217 147.291L108.145 212.042C108.676 214.108 108.145 216.292 106.726 217.884C105.504 219.255 103.771 220.021 101.965 220.021C101.673 220.021 101.38 220.001 101.086 219.961Z" fill="#3F3D56"/>
<path d="M84.408 96.6922C84.8453 97.1735 86.4325 96.6831 89.589 95.6827C91.9883 94.9222 92.3579 94.6455 92.5861 94.4471C93.3884 93.7495 93.5987 93.016 94.3935 89.7757C95.8199 83.9597 95.864 83.3821 96.5965 82.148C96.8488 81.723 97.4859 80.7092 97.3305 80.5835C97.1709 80.4544 96.4814 81.5105 95.207 81.9096C93.9649 82.2985 93.4058 81.6755 92.3455 81.8341C90.9748 82.0392 90.1597 83.342 88.8813 85.4507C87.7493 87.3181 87.6068 88.0693 86.0197 91.7796C85.57 92.8307 85.2079 93.6442 84.93 94.2871C81.8137 97.1973 78.7231 100.146 75.6605 103.12C75.7195 103.03 75.775 102.944 75.8232 102.87C77.1798 100.786 77.3642 99.669 77.3445 98.8318C77.3126 97.4755 76.6652 96.4424 75.3717 94.4315C74.1041 92.461 72.9031 91.1608 71.456 89.6093C69.5592 87.5755 68.6108 86.5586 68.2331 86.6255C65.5354 87.1032 64.814 105.482 68.2082 108.769C67.7318 109.11 67.3373 109.466 67.052 109.817C64.1464 106.59 59.1692 102.983 53.6554 102.539C50.2562 102.266 48.3801 103.333 47.7968 103.7C45.1006 105.394 43.4974 108.785 44.3026 109.742C45.0534 110.635 47.2217 108.606 51.4715 108.718C54.4368 108.796 56.7531 109.872 58.1283 110.511C61.013 111.852 62.0681 113.17 64.195 114.072C63.198 114.895 62.408 115.92 61.912 116.877C61.7401 117.055 61.5689 117.233 61.3973 117.41C59.2027 116.173 56.7314 115.265 54.1409 115.056C50.7417 114.783 48.8656 115.85 48.2822 116.217C46.4651 117.359 45.1483 119.269 44.7268 120.688C44.4514 120.744 44.1965 120.807 43.9631 120.875C43.1394 119.012 40.688 117.048 38.4086 116.058C34.485 114.354 29.3883 114.806 28.843 116.426C28.8256 116.478 28.8212 116.529 28.8135 116.58C29.2436 113.108 29.8276 109.66 30.5572 106.237C30.5819 106.334 30.613 106.433 30.6544 106.537C31.623 108.971 34.2402 111.308 37.8078 112.52C40.6078 113.471 41.7806 112.978 42.0785 112.84C42.3631 112.709 43.5923 112.181 43.8935 111.131C44.4519 109.185 41.0324 103.433 38.8755 105.362C31.9453 111.561 30.9943 106.542 30.676 105.697C31.2652 102.991 31.9434 100.3 32.704 97.6249C32.7171 97.6413 32.7285 97.6574 32.7421 97.6738C34.2562 99.5111 37.17 100.806 40.5942 100.863C43.2816 100.908 44.1597 100.155 44.3794 99.9529C44.589 99.7598 45.5063 98.9612 45.4755 97.969C45.4184 96.1294 42.1477 94.6312 39.5308 94.3714C37.1193 94.1321 34.5226 94.8708 33.2345 95.8063C33.8334 93.8029 34.4776 91.8082 35.1648 89.8222C36.9247 90.5414 39.4177 90.4447 41.8667 89.3493C43.8864 88.446 44.2791 87.5787 44.3725 87.3515C44.4616 87.1345 44.8676 86.2192 44.4992 85.4901C43.8161 84.1383 40.8556 84.1612 38.8137 84.8796C37.9728 85.1755 37.1735 85.6308 36.4885 86.1454C37.7063 82.8902 39.0338 79.6582 40.4614 76.45L39.0307 76.0921C37.2069 80.1904 35.6168 84.342 34.2503 88.5397C34.0803 87.3086 33.6545 85.9971 33.0939 84.9316C31.4453 81.7986 27.924 79.4482 26.7332 80.2108C26.495 80.3633 26.3947 80.6118 26.3041 80.9075C25.5741 83.2876 26.1238 86.5769 28.0463 89.5989C29.5551 91.9708 30.7171 92.3037 31.0198 92.379C31.2754 92.4426 32.2622 92.7152 33.0732 92.3641C32.5277 94.2342 32.0234 96.1123 31.5635 97.9988C31.0101 96.6241 29.9196 95.1593 28.7662 94.1464C26.1066 91.8107 21.978 90.8761 21.1386 92.0145C20.9707 92.2422 20.9659 92.51 20.987 92.8187C21.1562 95.3026 22.8455 98.1774 25.7211 100.311C27.9781 101.986 29.1822 101.881 29.4918 101.843C29.6741 101.821 30.2248 101.766 30.7557 101.526C30.2629 103.818 29.8321 106.121 29.4597 108.435C28.715 105.847 26.1851 102.619 23.7976 103.646C19.5608 105.468 14.5805 102.669 14.0324 103.893C13.8898 104.212 14.0078 104.54 14.1443 104.896C15.242 107.764 18.2735 110.542 22.436 112.018C25.703 113.176 27.0851 112.616 27.4364 112.459C27.6692 112.355 28.4374 112.034 29.0097 111.438C28.5983 114.411 28.2829 117.398 28.0609 120.398C27.1775 118.468 24.6895 116.435 22.3602 115.387C18.2745 113.548 12.9306 113.951 12.3372 115.641C12.2185 115.979 12.3121 116.305 12.4521 116.67C13.5788 119.614 16.6902 122.466 20.9627 123.98C24.3159 125.169 25.7345 124.594 26.0951 124.433C26.3585 124.316 27.2888 123.927 27.882 123.188C27.806 124.575 27.7474 125.965 27.7102 127.357C27.6997 127.753 27.6935 128.149 27.6858 128.546C27.6377 128.624 27.5957 128.703 27.5677 128.787C27.4532 129.127 27.5311 129.454 27.6655 129.811C27.6626 130.063 27.661 130.315 27.6593 130.567C26.9118 129.889 26.0201 128.869 24.9475 127.417C23.9797 126.106 23.0607 127.068 22.4703 128.184C21.5448 127.977 20.662 128.105 19.9678 128.754C15.312 133.106 10.0901 130.797 10.0162 132.094C9.99493 132.469 10.1953 132.767 10.448 133.089C12.4808 135.688 16.4716 137.583 21.2126 137.783C24.9336 137.94 26.1764 136.928 26.4876 136.656C26.597 136.56 26.842 136.354 27.1074 136.064C27.3205 136.234 27.5279 136.389 27.7359 136.529C27.8177 139.02 27.9642 141.509 28.1813 143.992C28.0048 144.008 27.836 144.037 27.7102 144.05C25.9079 144.234 25.3006 141.801 22.5779 140.912C21.6737 140.616 19.9317 140.294 19.0137 140.912C18.8815 141.001 18.4304 141.335 17.7306 141.625C17.3169 141.796 17.0009 141.876 16.8752 141.91C15.7581 142.216 14.7234 143.055 14.0239 143.622C12.7089 144.688 12.0515 145.221 11.7428 146.19C11.6457 146.494 11.3725 147.352 11.7428 148.187C11.9178 148.581 12.324 149.168 13.8813 149.756C14.8069 150.105 17.5066 151.124 20.7245 150.041C21.4572 149.795 20.8979 149.883 23.7184 148.472C25.9374 147.362 27.2352 146.831 27.4251 145.762C27.4919 145.386 27.4246 144.927 27.7102 144.763C27.869 144.672 28.061 144.716 28.2526 144.785C28.4393 146.782 28.6724 148.775 28.955 150.765H26.4159C23.0443 150.765 20.0196 152.642 18.5224 155.665L9.02466 174.837C8.42507 176.047 8.10806 177.401 8.10806 178.752V228.05C8.10806 232.91 12.0603 236.865 16.9182 236.865H39.0872C43.9452 236.865 47.8973 232.91 47.8973 228.05V182.656C47.8973 181.549 47.6924 180.466 47.2883 179.435L38.2365 156.359C37.1386 153.561 34.7608 151.581 31.9184 150.968C32.8301 149.887 33.7432 148.806 34.6635 147.729C35.8222 148.289 37.0968 148.748 38.4673 149.07C42.0928 149.923 43.5033 149.163 43.8601 148.954C44.2009 148.754 45.6779 147.943 45.9283 146.591C45.9551 146.446 45.9655 146.299 45.9636 146.152C49.6773 149.172 51.6145 150.661 53.03 150.165C54.2468 149.738 54.9415 148.339 55.3393 147.084C55.7547 147.142 56.1953 147.201 56.6648 147.264C61.7511 147.943 64.3142 148.258 65.2947 147.053C66.6516 145.385 65.3636 142.168 65.0086 141.281C64.2371 139.354 63.0502 138.182 62.3129 137.469C61.3555 136.543 58.6268 133.903 54.3308 133.551C53.3969 133.474 52.5579 133.533 51.7033 133.712C51.4055 133.439 51.0912 133.172 50.7451 132.918C50.0857 132.435 49.4345 132.077 48.7336 131.797C49.8087 130.619 50.8869 129.444 51.9701 128.274C52.1416 128.352 52.3044 128.427 52.454 128.497C56.0027 130.146 56.7824 131.761 60.1951 132.611C61.7434 132.996 63.4963 133.433 63.9301 132.777C64.7011 131.61 61.4289 126.812 56.3724 123.565C56.7133 123.204 57.0551 122.844 57.3968 122.484C57.8592 122.678 58.2666 122.867 58.6137 123.028C62.1624 124.677 62.9421 126.292 66.3549 127.142C67.9031 127.528 69.6559 127.965 70.0899 127.308C70.7777 126.268 68.2468 122.334 64.1018 119.192C65.2404 118.83 66.7502 118.429 68.7052 118.481C71.6705 118.559 73.9868 119.635 75.362 120.274C78.9107 121.923 79.6903 123.538 83.1031 124.388C84.6513 124.774 86.4042 125.211 86.8381 124.554C87.9841 122.82 80.2002 113.052 70.8891 112.302C70.1664 112.244 69.5166 112.249 68.9294 112.293C68.8482 112.158 68.7601 112.02 68.6673 111.879C71.8177 111.981 77.9702 111.08 83.207 114.758C84.717 115.819 87.6503 118.314 92.5595 120.364C94.1285 121.019 94.9176 121.342 95.1348 121.073C95.9127 120.109 89.4449 112.183 80.3456 108.278C76.7378 106.73 74.5088 106.584 72.9233 106.818C73.1677 106.54 73.4058 106.252 73.6351 105.963C77.1782 102.486 80.7661 99.0453 84.3863 95.651C84.211 96.1931 84.2168 96.4817 84.408 96.6922ZM38.9383 139.968C34.9363 138.671 30.0903 139.368 28.8266 140.843C28.6485 139.536 28.4937 138.226 28.3661 136.915C30.1893 137.934 32.0918 138.207 35.7006 138.689C37.2377 138.894 38.5407 139.065 39.6429 139.172C39.7909 139.573 39.9488 139.935 40.132 140.28C40.1532 140.32 40.176 140.359 40.1977 140.398L40.1657 140.435C39.7548 140.256 39.343 140.099 38.9383 139.968ZM28.3055 122.406C28.4196 122.027 28.422 121.623 28.3348 121.207C28.4593 119.701 28.6148 118.198 28.7987 116.7C28.794 116.93 28.8666 117.159 28.9657 117.408C30.0782 120.204 33.0844 122.887 37.1822 124.279C37.9466 124.539 38.6024 124.703 39.1672 124.803C38.9187 125.236 38.7283 125.658 38.6021 126.049C37.2051 124.926 35.4069 124.109 33.3665 124.976C32.8113 125.211 32.4817 126.074 32.1954 127.105C30.3105 127.138 28.7355 127.531 27.9853 128.197C27.9893 127.919 27.9879 127.642 27.9954 127.364C28.0376 125.779 28.1157 124.199 28.2257 122.624C28.2558 122.553 28.2828 122.481 28.3055 122.406ZM27.9906 130.559C28.0719 130.725 28.1608 130.891 28.2532 131.056C28.1694 130.994 28.0836 130.928 27.9954 130.856C27.9931 130.757 27.9925 130.658 27.9906 130.559ZM31.2089 150.846C30.9894 150.818 30.768 150.797 30.5444 150.784C30.0285 148.221 29.552 145.66 29.1532 143.094C30.2019 144.759 31.9134 146.284 34.0936 147.44C33.1262 148.572 32.1668 149.709 31.2089 150.846ZM48.1001 131.57C46.7353 131.132 45.1338 130.922 42.9173 130.664C42.3556 129.883 41.7766 129.308 41.3486 128.894C41.1167 128.67 40.7609 128.225 40.2998 127.704C41.4945 127.321 43.2776 126.637 45.7972 126.703C48.0871 126.763 49.9876 127.419 51.3688 128.008C50.2747 129.191 49.1861 130.379 48.1001 131.57ZM55.8349 123.23C54.4937 122.419 53.0393 121.724 51.5082 121.236C51.657 121.235 51.8026 121.231 51.9569 121.235C53.8557 121.285 55.4865 121.744 56.7763 122.236C56.4624 122.567 56.1481 122.898 55.8349 123.23Z" fill="#0277BD"/>
</g>
<defs>
<clipPath id="clip0_1_7">
<rect width="306" height="244" fill="white"/>
</clipPath>
</defs>
</svg>
